<svg width="210" height="56" viewBox="0 0 210 56" fill="none" xmlns="http://www.w3.org/2000/svg">
<path d="M4.95 27.656H6.12C7.416 27.656 8.064 27.092 8.064 25.964C8.064 24.836 7.416 24.272 6.12 24.272H4.95V27.656ZM4.95 35H1.422V21.428H7.038C8.562 21.428 9.726 21.824 10.53 22.616C11.346 23.408 11.754 24.524 11.754 25.964C11.754 27.404 11.346 28.52 10.53 29.312C9.726 30.104 8.562 30.5 7.038 30.5H4.95V35ZM18.9492 27.494H19.6152C20.3112 27.494 20.8452 27.35 21.2172 27.062C21.5892 26.774 21.7752 26.36 21.7752 25.82C21.7752 25.28 21.5892 24.866 21.2172 24.578C20.8452 24.29 20.3112 24.146 19.6152 24.146H18.9492V27.494ZM26.7072 35H22.3152L18.9492 29.78V35H15.4212V21.428H20.9112C21.6672 21.428 22.3272 21.542 22.8912 21.77C23.4552 21.986 23.9172 22.286 24.2772 22.67C24.6492 23.054 24.9252 23.498 25.1052 24.002C25.2972 24.506 25.3932 25.046 25.3932 25.622C25.3932 26.654 25.1412 27.494 24.6372 28.142C24.1452 28.778 23.4132 29.21 22.4412 29.438L26.7072 35ZM32.8148 28.214C32.8148 28.754 32.9168 29.252 33.1208 29.708C33.3248 30.164 33.6008 30.56 33.9488 30.896C34.2968 31.232 34.6988 31.496 35.1548 31.688C35.6228 31.868 36.1148 31.958 36.6308 31.958C37.1468 31.958 37.6328 31.868 38.0888 31.688C38.5568 31.496 38.9648 31.232 39.3128 30.896C39.6728 30.56 39.9548 30.164 40.1588 29.708C40.3628 29.252 40.4648 28.754 40.4648 28.214C40.4648 27.674 40.3628 27.176 40.1588 26.72C39.9548 26.264 39.6728 25.868 39.3128 25.532C38.9648 25.196 38.5568 24.938 38.0888 24.758C37.6328 24.566 37.1468 24.47 36.6308 24.47C36.1148 24.47 35.6228 24.566 35.1548 24.758C34.6988 24.938 34.2968 25.196 33.9488 25.532C33.6008 25.868 33.3248 26.264 33.1208 26.72C32.9168 27.176 32.8148 27.674 32.8148 28.214ZM29.1248 28.214C29.1248 27.206 29.3108 26.27 29.6828 25.406C30.0548 24.53 30.5708 23.768 31.2308 23.12C31.8908 22.472 32.6768 21.968 33.5888 21.608C34.5128 21.236 35.5268 21.05 36.6308 21.05C37.7228 21.05 38.7308 21.236 39.6548 21.608C40.5788 21.968 41.3708 22.472 42.0308 23.12C42.7028 23.768 43.2248 24.53 43.5968 25.406C43.9688 26.27 44.1548 27.206 44.1548 28.214C44.1548 29.222 43.9688 30.164 43.5968 31.04C43.2248 31.904 42.7028 32.66 42.0308 33.308C41.3708 33.956 40.5788 34.466 39.6548 34.838C38.7308 35.198 37.7228 35.378 36.6308 35.378C35.5268 35.378 34.5128 35.198 33.5888 34.838C32.6768 34.466 31.8908 33.956 31.2308 33.308C30.5708 32.66 30.0548 31.904 29.6828 31.04C29.3108 30.164 29.1248 29.222 29.1248 28.214Z" fill="#F68412"/>
<path d="M55.5633 29.96L53.9793 25.442L52.3953 29.96H55.5633ZM56.4993 32.642H51.4593L50.6493 35H46.8873L52.0533 21.428H55.9053L61.0713 35H57.3093L56.4993 32.642ZM64.415 35V21.428H67.943L74.459 29.726V21.428H77.969V35H74.459L67.943 26.702V35H64.415ZM90.0305 29.96L88.4465 25.442L86.8625 29.96H90.0305ZM90.9665 32.642H85.9265L85.1165 35H81.3545L86.5205 21.428H90.3725L95.5385 35H91.7765L90.9665 32.642ZM102.41 21.428V32.012H106.64V35H98.8822V21.428H102.41ZM112.167 28.484L107.217 21.428H111.429L113.949 25.136L116.451 21.428H120.663L115.695 28.484V35H112.167V28.484ZM129.726 24.416V35H126.198V24.416H123.3V21.428H132.624V24.416H129.726ZM139.521 21.428V35H135.993V21.428H139.521ZM153.93 25.964C153.114 24.968 152.106 24.47 150.906 24.47C150.378 24.47 149.886 24.566 149.43 24.758C148.986 24.95 148.602 25.214 148.278 25.55C147.954 25.874 147.696 26.264 147.504 26.72C147.324 27.176 147.234 27.668 147.234 28.196C147.234 28.736 147.324 29.234 147.504 29.69C147.696 30.146 147.954 30.542 148.278 30.878C148.614 31.214 149.004 31.478 149.448 31.67C149.892 31.862 150.372 31.958 150.888 31.958C152.016 31.958 153.03 31.478 153.93 30.518V34.694L153.57 34.82C153.03 35.012 152.526 35.15 152.058 35.234C151.59 35.33 151.128 35.378 150.672 35.378C149.736 35.378 148.836 35.204 147.972 34.856C147.12 34.496 146.364 33.998 145.704 33.362C145.056 32.714 144.534 31.952 144.138 31.076C143.742 30.188 143.544 29.222 143.544 28.178C143.544 27.134 143.736 26.18 144.12 25.316C144.516 24.44 145.038 23.69 145.686 23.066C146.346 22.43 147.108 21.938 147.972 21.59C148.836 21.23 149.742 21.05 150.69 21.05C151.23 21.05 151.758 21.11 152.274 21.23C152.802 21.338 153.354 21.512 153.93 21.752V25.964ZM165.414 24.902C165.03 24.59 164.646 24.362 164.262 24.218C163.878 24.062 163.506 23.984 163.146 23.984C162.69 23.984 162.318 24.092 162.03 24.308C161.742 24.524 161.598 24.806 161.598 25.154C161.598 25.394 161.67 25.592 161.814 25.748C161.958 25.904 162.144 26.042 162.372 26.162C162.612 26.27 162.876 26.366 163.164 26.45C163.464 26.534 163.758 26.624 164.046 26.72C165.198 27.104 166.038 27.62 166.566 28.268C167.106 28.904 167.376 29.738 167.376 30.77C167.376 31.466 167.256 32.096 167.016 32.66C166.788 33.224 166.446 33.71 165.99 34.118C165.546 34.514 164.994 34.82 164.334 35.036C163.686 35.264 162.948 35.378 162.12 35.378C160.404 35.378 158.814 34.868 157.35 33.848L158.862 31.004C159.39 31.472 159.912 31.82 160.428 32.048C160.944 32.276 161.454 32.39 161.958 32.39C162.534 32.39 162.96 32.258 163.236 31.994C163.524 31.73 163.668 31.43 163.668 31.094C163.668 30.89 163.632 30.716 163.56 30.572C163.488 30.416 163.368 30.278 163.2 30.158C163.032 30.026 162.81 29.906 162.534 29.798C162.27 29.69 161.946 29.57 161.562 29.438C161.106 29.294 160.656 29.138 160.212 28.97C159.78 28.79 159.39 28.556 159.042 28.268C158.706 27.98 158.43 27.62 158.214 27.188C158.01 26.744 157.908 26.186 157.908 25.514C157.908 24.842 158.016 24.236 158.232 23.696C158.46 23.144 158.772 22.676 159.168 22.292C159.576 21.896 160.068 21.59 160.644 21.374C161.232 21.158 161.886 21.05 162.606 21.05C163.278 21.05 163.98 21.146 164.712 21.338C165.444 21.518 166.146 21.788 166.818 22.148L165.414 24.902Z" fill="#1A2D55"/>
<circle cx="173.5" cy="32.5" r="2.5" fill="#F68412"/>
</svg>
